<svg width="35" height="35" viewBox="0 0 35 35" fill="none" xmlns="http://www.w3.org/2000/svg">
<path d="M17.5 10.2083C17.5 8.66124 16.8854 7.17751 15.7914 6.08354C14.6975 4.98958 13.2137 4.375 11.6666 4.375H2.91663V26.25H13.125C14.2853 26.25 15.3981 26.7109 16.2186 27.5314C17.039 28.3519 17.5 29.4647 17.5 30.625M17.5 10.2083V30.625M17.5 10.2083C17.5 8.66124 18.1145 7.17751 19.2085 6.08354C20.3025 4.98958 21.7862 4.375 23.3333 4.375H32.0833V26.25H21.875C20.7146 26.25 19.6018 26.7109 18.7814 27.5314C17.9609 28.3519 17.5 29.4647 17.5 30.625" stroke="#FAFAFA" stroke-width="4" stroke-linecap="round" stroke-linejoin="round"/>
</svg>
